<svg width="157" height="48" viewBox="0 0 157 48" fill="none" xmlns="http://www.w3.org/2000/svg">
<g clip-path="url(#clip0_36131_12317)">
<path d="M27.9105 28.1972C26.3611 25.7394 25.0537 23.1372 24.0097 20.418C22.9657 23.1391 21.6583 25.7413 20.1089 28.1972C21.3987 28.0353 22.7003 27.9495 24.0097 27.9495C25.3191 27.9495 26.6206 28.0353 27.9105 28.1972Z" fill="url(#paint0_linear_36131_12317)"/>
<path d="M31.1889 32.7337C26.5212 31.4638 21.4983 31.4638 16.8306 32.7337C15.6715 34.142 14.4207 35.4841 13.0859 36.7579C16.0247 39.2742 19.8377 40.7977 24.0117 40.7977C28.1857 40.7977 31.9987 39.2742 34.9375 36.7579C33.6008 35.486 32.3499 34.142 31.1928 32.7337H31.1889Z" fill="url(#paint1_linear_36131_12317)"/>
<path d="M24.0078 7.20312C14.727 7.20312 7.20447 14.7229 7.20447 24.0003C7.20447 27.7261 8.42018 31.169 10.475 33.9545C16.3291 28.3698 20.3626 21.285 22.1423 13.4179H25.8733C27.6529 21.283 31.6845 28.3698 37.5406 33.9545C39.5954 31.169 40.8111 27.7261 40.8111 24.0003C40.8111 14.7229 33.2885 7.20312 24.0078 7.20312Z" fill="url(#paint2_linear_36131_12317)"/>
<path d="M43.3381 9.78648C43.8767 9.15447 44.2026 8.33519 44.2026 7.43983C44.2026 5.4365 42.5791 3.81355 40.575 3.81355C39.6793 3.81355 38.8597 4.13931 38.2275 4.67769C34.2447 1.73999 29.3272 0 24.0078 0C10.7697 0 0 10.7657 0 23.999C0 37.2323 10.7697 47.998 24.0078 47.998C37.2459 47.998 48.0156 37.2323 48.0156 23.999C48.0156 18.6835 46.275 13.7658 43.3362 9.78453L43.3381 9.78648ZM24.0078 46.853C11.4019 46.853 1.14741 36.6003 1.14741 24.001C1.14741 11.4016 11.4038 1.14699 24.0078 1.14699C29.0423 1.14699 33.7003 2.78555 37.4801 5.55354C37.1445 6.10363 36.9474 6.74735 36.9474 7.43788C36.9474 9.44122 38.5709 11.0642 40.575 11.0642C41.2658 11.0642 41.9117 10.8672 42.46 10.5316C45.229 14.312 46.8682 18.9663 46.8682 23.999C46.8682 36.6003 36.6117 46.8511 24.0078 46.8511V46.853Z" fill="url(#paint3_linear_36131_12317)"/>
<path d="M70.7101 25.0573L69.3402 21.2691C69.3012 21.1696 69.2583 21.0565 69.2114 20.9297L70.7003 25.0573H70.7101Z" fill="url(#paint4_linear_36131_12317)"/>
<path d="M66.6922 21.2695L66.2024 22.6252L66.7117 21.2188C66.7058 21.2344 66.698 21.2539 66.6922 21.2675V21.2695Z" fill="url(#paint5_linear_36131_12317)"/>
<path d="M64.294 27.8906L63.6598 29.6404L64.294 27.8906Z" fill="url(#paint6_linear_36131_12317)"/>
<path d="M69.7285 14.125H66.3038L59.3628 32.1121H62.766L63.6109 29.7771L63.6597 29.6406L64.2939 27.8908L66.2004 22.6279L66.6902 21.2722C66.6961 21.2586 66.7039 21.2371 66.7097 21.2235L68.0152 17.6206L69.2114 20.9348C69.2602 21.0616 69.3031 21.1747 69.3402 21.2742L70.71 25.0624H70.7003L73.2449 32.116H76.4178L76.5837 31.8956L69.7266 14.1289L69.7285 14.125Z" fill="url(#paint7_linear_36131_12317)"/>
<path d="M93.8417 14.1484H90.0287L85.4391 20.0375L80.8495 14.1484H77.0345L83.6126 22.5714L76.5857 31.8917L76.6696 32.1121H80.2328L85.4157 25.1268L90.6454 32.1121H94.4584L87.2422 22.5714L93.8417 14.1484Z" fill="url(#paint8_linear_36131_12317)"/>
<path d="M76.4178 32.1111H76.6696L76.5857 31.8906L76.4178 32.1111Z" fill="url(#paint9_linear_36131_12317)"/>
<path d="M105.989 21.7266H95.235V24.557H105.989V21.7266Z" fill="url(#paint10_linear_36131_12317)"/>
<path d="M122.853 14.8897C122.617 14.6536 122.34 14.4683 122.02 14.3298C121.7 14.1933 121.358 14.125 120.991 14.125H110.715C110.35 14.125 110.007 14.1933 109.687 14.3298C109.367 14.4664 109.09 14.6536 108.854 14.8897C108.618 15.1257 108.426 15.4027 108.284 15.7226C108.139 16.0425 108.067 16.3917 108.067 16.7721V29.4631C108.067 29.8435 108.139 30.1926 108.284 30.5125C108.428 30.8324 108.618 31.1094 108.854 31.3455C109.09 31.5815 109.367 31.7668 109.687 31.9053C110.007 32.0419 110.348 32.1101 110.715 32.1101H120.991C121.356 32.1101 121.7 32.0419 122.02 31.9053C122.34 31.7688 122.617 31.5815 122.853 31.3455C123.089 31.1094 123.278 30.8324 123.423 30.5125C123.567 30.1926 123.639 29.8435 123.639 29.4631V16.7721C123.639 16.3917 123.567 16.0425 123.423 15.7226C123.278 15.4027 123.087 15.1257 122.853 14.8897ZM120.49 28.8701C120.49 28.991 120.453 29.0905 120.377 29.1666C120.3 29.2427 120.201 29.2817 120.08 29.2817H111.63C111.508 29.2817 111.41 29.2446 111.334 29.1666C111.258 29.0905 111.221 28.991 111.221 28.8701V17.3651C111.221 17.2441 111.258 17.1446 111.334 17.0686C111.41 16.9925 111.508 16.9554 111.63 16.9554H120.08C120.201 16.9554 120.3 16.9944 120.377 17.0686C120.453 17.1446 120.49 17.2441 120.49 17.3651V28.8701Z" fill="url(#paint11_linear_36131_12317)"/>
<path d="M137.956 28.0723L130.467 14.125H126.014V32.1121H129.166V23.5526C129.166 23.1273 129.162 22.6514 129.154 22.1266C129.146 21.6019 129.138 21.0694 129.13 20.529C129.123 19.9887 129.115 19.4562 129.107 18.9314C129.099 18.4067 129.095 17.9307 129.095 17.5055L136.653 32.114H141.106V14.127H137.955V28.0742L137.956 28.0723Z" fill="url(#paint12_linear_36131_12317)"/>
<path d="M147.044 29.2817C146.921 29.2817 146.824 29.2446 146.747 29.1666C146.671 29.0905 146.634 28.991 146.634 28.8701V24.0305H155.974V21.2001H146.634V17.3651C146.634 17.2441 146.671 17.1446 146.747 17.0686C146.824 16.9925 146.921 16.9554 147.044 16.9554H156.543V14.125H146.131C145.766 14.125 145.422 14.1933 145.102 14.3298C144.782 14.4664 144.505 14.6536 144.269 14.8897C144.033 15.1257 143.842 15.4027 143.699 15.7226C143.555 16.0425 143.483 16.3917 143.483 16.7721V29.4631C143.483 29.8435 143.555 30.1926 143.699 30.5125C143.844 30.8324 144.033 31.1094 144.269 31.3455C144.505 31.5815 144.782 31.7668 145.102 31.9053C145.422 32.0419 145.764 32.1101 146.131 32.1101H157V29.2797H147.044V29.2817Z" fill="url(#paint13_linear_36131_12317)"/>
</g>
<defs>
<linearGradient id="paint0_linear_36131_12317" x1="2.51137" y1="23.9955" x2="54.8141" y2="24.8271" gradientUnits="userSpaceOnUse">
<stop stop-color="#E60CFF"/>
<stop offset="1" stop-color="#0071B9"/>
</linearGradient>
<linearGradient id="paint1_linear_36131_12317" x1="2.32214" y1="35.9445" x2="54.6249" y2="36.776" gradientUnits="userSpaceOnUse">
<stop stop-color="#E60CFF"/>
<stop offset="1" stop-color="#0071B9"/>
</linearGradient>
<linearGradient id="paint2_linear_36131_12317" x1="2.56995" y1="20.3448" x2="54.8727" y2="21.1744" gradientUnits="userSpaceOnUse">
<stop stop-color="#E60CFF"/>
<stop offset="1" stop-color="#0071B9"/>
</linearGradient>
<linearGradient id="paint3_linear_36131_12317" x1="2.51728" y1="23.6596" x2="54.82" y2="24.4892" gradientUnits="userSpaceOnUse">
<stop stop-color="#E60CFF"/>
<stop offset="1" stop-color="#0071B9"/>
</linearGradient>
<linearGradient id="paint4_linear_36131_12317" x1="2.54464" y1="21.9245" x2="54.8473" y2="22.7542" gradientUnits="userSpaceOnUse">
<stop stop-color="#E60CFF"/>
<stop offset="1" stop-color="#0071B9"/>
</linearGradient>
<linearGradient id="paint5_linear_36131_12317" x1="2.56054" y1="20.9086" x2="54.863" y2="21.7382" gradientUnits="userSpaceOnUse">
<stop stop-color="#E60CFF"/>
<stop offset="1" stop-color="#0071B9"/>
</linearGradient>
<linearGradient id="paint6_linear_36131_12317" x1="2.45094" y1="27.7892" x2="54.7537" y2="28.6208" gradientUnits="userSpaceOnUse">
<stop stop-color="#E60CFF"/>
<stop offset="1" stop-color="#0071B9"/>
</linearGradient>
<linearGradient id="paint7_linear_36131_12317" x1="2.54064" y1="22.1344" x2="54.8434" y2="22.966" gradientUnits="userSpaceOnUse">
<stop stop-color="#E60CFF"/>
<stop offset="1" stop-color="#0071B9"/>
</linearGradient>
<linearGradient id="paint8_linear_36131_12317" x1="2.54654" y1="21.8185" x2="54.8493" y2="22.6481" gradientUnits="userSpaceOnUse">
<stop stop-color="#E60CFF"/>
<stop offset="1" stop-color="#0071B9"/>
</linearGradient>
<linearGradient id="paint9_linear_36131_12317" x1="2.40161" y1="30.8256" x2="54.7067" y2="31.6552" gradientUnits="userSpaceOnUse">
<stop stop-color="#E60CFF"/>
<stop offset="1" stop-color="#0071B9"/>
</linearGradient>
<linearGradient id="paint10_linear_36131_12317" x1="2.5504" y1="21.5861" x2="54.8532" y2="22.4158" gradientUnits="userSpaceOnUse">
<stop stop-color="#E60CFF"/>
<stop offset="1" stop-color="#0071B9"/>
</linearGradient>
<linearGradient id="paint11_linear_36131_12317" x1="2.55435" y1="21.321" x2="54.8571" y2="22.1506" gradientUnits="userSpaceOnUse">
<stop stop-color="#E60CFF"/>
<stop offset="1" stop-color="#0071B9"/>
</linearGradient>
<linearGradient id="paint12_linear_36131_12317" x1="2.55827" y1="21.0401" x2="54.861" y2="21.8697" gradientUnits="userSpaceOnUse">
<stop stop-color="#E60CFF"/>
<stop offset="1" stop-color="#0071B9"/>
</linearGradient>
<linearGradient id="paint13_linear_36131_12317" x1="2.5621" y1="20.7592" x2="54.8649" y2="21.5888" gradientUnits="userSpaceOnUse">
<stop stop-color="#E60CFF"/>
<stop offset="1" stop-color="#0071B9"/>
</linearGradient>
<clipPath id="clip0_36131_12317">
<rect width="157" height="48" fill="white"/>
</clipPath>
</defs>
</svg>
