<svg width="49" height="48" viewBox="0 0 49 48" fill="none" xmlns="http://www.w3.org/2000/svg">
<path d="M27.911 28.1988C26.3616 25.741 25.0542 23.1388 24.0102 20.4196C22.9662 23.1407 21.6588 25.7429 20.1094 28.1988C21.3992 28.0369 22.7008 27.9511 24.0102 27.9511C25.3196 27.9511 26.6211 28.0369 27.911 28.1988Z" fill="url(#paint0_linear_1068_4529)"/>
<path d="M31.1889 32.7322C26.5212 31.4623 21.4983 31.4623 16.8306 32.7322C15.6715 34.1405 14.4207 35.4826 13.0859 36.7564C16.0247 39.2727 19.8377 40.7962 24.0117 40.7962C28.1857 40.7962 31.9987 39.2727 34.9375 36.7564C33.6008 35.4845 32.3499 34.1405 31.1928 32.7322H31.1889Z" fill="url(#paint1_linear_1068_4529)"/>
<path d="M24.0084 7.20386C14.7276 7.20386 7.20508 14.7237 7.20508 24.0011C7.20508 27.7268 8.42079 31.1698 10.4756 33.9553C16.3297 28.3706 20.3632 21.2857 22.1429 13.4187H25.8739C27.6536 21.2838 31.6851 28.3706 37.5412 33.9553C39.596 31.1698 40.8117 27.7268 40.8117 24.0011C40.8117 14.7237 33.2891 7.20386 24.0084 7.20386Z" fill="url(#paint2_linear_1068_4529)"/>
<path d="M43.3381 9.78648C43.8767 9.15447 44.2026 8.33519 44.2026 7.43983C44.2026 5.4365 42.5791 3.81355 40.575 3.81355C39.6793 3.81355 38.8597 4.13931 38.2275 4.67769C34.2447 1.73999 29.3272 0 24.0078 0C10.7697 0 0 10.7657 0 23.999C0 37.2323 10.7697 47.998 24.0078 47.998C37.2459 47.998 48.0156 37.2323 48.0156 23.999C48.0156 18.6835 46.275 13.7658 43.3362 9.78453L43.3381 9.78648ZM24.0078 46.853C11.4019 46.853 1.14741 36.6003 1.14741 24.001C1.14741 11.4016 11.4038 1.14699 24.0078 1.14699C29.0423 1.14699 33.7003 2.78555 37.4801 5.55354C37.1445 6.10363 36.9474 6.74735 36.9474 7.43788C36.9474 9.44122 38.5709 11.0642 40.575 11.0642C41.2658 11.0642 41.9117 10.8672 42.46 10.5316C45.229 14.312 46.8682 18.9663 46.8682 23.999C46.8682 36.6003 36.6117 46.8511 24.0078 46.8511V46.853Z" fill="url(#paint3_linear_1068_4529)"/>
<defs>
<linearGradient id="paint0_linear_1068_4529" x1="2.51185" y1="23.9971" x2="54.8146" y2="24.8287" gradientUnits="userSpaceOnUse">
<stop stop-color="#E60CFF"/>
<stop offset="1" stop-color="#0071B9"/>
</linearGradient>
<linearGradient id="paint1_linear_1068_4529" x1="2.32218" y1="35.9429" x2="54.6249" y2="36.7745" gradientUnits="userSpaceOnUse">
<stop stop-color="#E60CFF"/>
<stop offset="1" stop-color="#0071B9"/>
</linearGradient>
<linearGradient id="paint2_linear_1068_4529" x1="2.57056" y1="20.3455" x2="54.8733" y2="21.1752" gradientUnits="userSpaceOnUse">
<stop stop-color="#E60CFF"/>
<stop offset="1" stop-color="#0071B9"/>
</linearGradient>
<linearGradient id="paint3_linear_1068_4529" x1="2.51728" y1="23.6596" x2="54.82" y2="24.4892" gradientUnits="userSpaceOnUse">
<stop stop-color="#E60CFF"/>
<stop offset="1" stop-color="#0071B9"/>
</linearGradient>
</defs>
</svg>
